Later, Live With Jools Holland (BBC2, Weller, Hot Chips, Gogol Bordello,)s35eo1[DTV-RIP-Divx]

First Shown On BBC 2 On Tuesday 13th April 2010




















Description:

Episode 1 of Later Live... featured performances from Paul Weller, Hot Chip, Marina and the Diamonds and Gogol Bordello, plus a solo acoustic debut for Conor J O'Brien, a.k.a. Villagers.


General
Complete name : Later, Live With Jools Holland s35eo1[DTV-RIP-Divx]
Format : AVI
Format/Info : Audio Video Interleave
File size : 278 MiB
Duration : 29mn 48s
Overall bit rate : 1 302 Kbps

Video
ID : 0
Format : MPEG-4 Visual
Format settings, BVOP : Yes
Format settings, QPel : No
Format settings, GMC : No warppoints
Format settings, Matrix : Default (H.263)
Muxing mode : Packed bitstream
Codec ID : DX50
Codec ID/Hint : DivX 5
Duration : 29mn 48s
Bit rate : 1 100 Kbps
Width : 688 pixels
Height : 384 pixels
Display aspect ratio : 16:9
Frame rate : 25.000 fps
Resolution : 8 bits
Colorimetry : 4:2:0
Scan type : Progressive
Bits/(Pixel*Frame) : 0.167
Stream size : 235 MiB (85%)
Title : Video
Writing library : DivX 6.8.2 (UTC 2008-05-17)

Audio
ID : 1
Format : AC-3
Format/Info : Audio Coding 3
Codec ID : 2000
Duration : 29mn 48s
Bit rate mode : Constant
Bit rate : 192 Kbps
Channel(s) : 2 channels
Channel positions : Front: L R
Sampling rate : 48.0 KHz
Stream size : 40.9 MiB (15%)
Alignment : Split accross interleaves
Interleave, duration : 40 ms (1.00 video frame)
Interleave, preload duration : 500 ms